HIERARCHY
ROOT Hips
{
	OFFSET -3.958830 18.904000 13.208200
	CHANNELS 6 Xposition Yposition Zposition Zrotation Yrotation Xrotation 
	JOINT LHipJoint
	{
		OFFSET 0.000000 0.000000 0.000000
		CHANNELS 3 Zrotation Yrotation Xrotation
		JOINT LeftUpLeg
		{
			OFFSET 1.800000 -1.400000 0.085000
			CHANNELS 3 Zrotation Yrotation Xrotation
			JOINT LeftLeg
			{
				OFFSET 2.215000 -6.000000 0.000000
				CHANNELS 3 Zrotation Yrotation Xrotation
				JOINT LeftFoot
				{
					OFFSET 2.500000 -6.900000 0.000000
					CHANNELS 3 Zrotation Yrotation Xrotation
					JOINT LeftToeBase
					{
						OFFSET 0.200000 -0.500000 1.950000
						CHANNELS 3 Zrotation Yrotation Xrotation
						End Site
						{
							OFFSET 0.000000 0.000000 0.000000
						}
					}
				}
			}
		}
	}
	JOINT RHipJoint
	{
		OFFSET 0.000000 0.000000 0.000000
		CHANNELS 3 Zrotation Yrotation Xrotation
		JOINT RightUpLeg
		{
			OFFSET -1.800000 -1.400000 0.085000
			CHANNELS 3 Zrotation Yrotation Xrotation
			JOINT RightLeg
			{
				OFFSET -2.215000 -6.000000 0.000000
				CHANNELS 3 Zrotation Yrotation Xrotation
				JOINT RightFoot
				{
					OFFSET -2.500000 -6.900000 0.000000
					CHANNELS 3 Zrotation Yrotation Xrotation
					JOINT RightToeBase
					{
						OFFSET -0.200000 -0.500000 1.950000
						CHANNELS 3 Zrotation Yrotation Xrotation
						End Site
						{
							OFFSET 0.000000 0.000000 0.000000
						}
					}
				}
			}
		}
	}
	JOINT LowerBack
	{
		OFFSET 0.000000 0.000000 0.000000
		CHANNELS 3 Zrotation Yrotation Xrotation
		JOINT Spine
		{
			OFFSET -0.087000 1.940000 -0.288900
			CHANNELS 3 Zrotation Yrotation Xrotation
			JOINT Spine1
			{
				OFFSET 0.000000 1.950000 0.060000
				CHANNELS 3 Zrotation Yrotation Xrotation
				JOINT Neck
				{
					OFFSET 0.000000 0.000000 0.000000
					CHANNELS 3 Zrotation Yrotation Xrotation
					JOINT Neck1
					{
						OFFSET 0.000000 1.600000 0.340000
						CHANNELS 3 Zrotation Yrotation Xrotation
						JOINT Head
						{
							OFFSET 0.000000 1.667000 -0.240000
							CHANNELS 3 Zrotation Yrotation Xrotation
							End Site
							{
								OFFSET 0.000000 0.000000 0.000000
							}
						}
					}
				}
				JOINT LeftShoulder
				{
					OFFSET 0.000000 0.000000 0.000000
					CHANNELS 3 Zrotation Yrotation Xrotation
					JOINT LeftArm
					{
						OFFSET 2.700000 1.550000 -0.730000
						CHANNELS 3 Zrotation Yrotation Xrotation
						JOINT LeftForeArm
						{
							OFFSET 5.450000 0.000000 0.000000
							CHANNELS 3 Zrotation Yrotation Xrotation
							JOINT LeftHand
							{
								OFFSET 3.450000 0.000000 0.000000
								CHANNELS 3 Zrotation Yrotation Xrotation
								JOINT LeftHandIndex1
								{
									OFFSET 0.750000 0.000000 0.000000
									CHANNELS 3 Zrotation Yrotation Xrotation
									End Site
									{
										OFFSET 0.000000 0.000000 0.000000
									}
								}
							}
						}
					}
				}
				JOINT RightShoulder
				{
					OFFSET 0.000000 0.000000 0.000000
					CHANNELS 3 Zrotation Yrotation Xrotation
					JOINT RightArm
					{
						OFFSET -2.700000 1.550000 -0.730000
						CHANNELS 3 Zrotation Yrotation Xrotation
						JOINT RightForeArm
						{
							OFFSET -5.450000 0.000000 0.000000
							CHANNELS 3 Zrotation Yrotation Xrotation
							JOINT RightHand
							{
								OFFSET -3.450000 0.000000 0.000000
								CHANNELS 3 Zrotation Yrotation Xrotation
								JOINT RightHandIndex1
								{
									OFFSET -0.750000 0.000000 0.000000
									CHANNELS 3 Zrotation Yrotation Xrotation
									End Site
									{
										OFFSET 0.000000 0.000000 0.000000
									}
								}
							}
						}
					}
				}
			}
		}
	}
}
MOTION
Frames: 10
Frame Time: 0.016667
-1.355430 18.294400 -3.243510 -0.860472 12.038769 2.037392 -15.024183 13.979371 2.704260 2.383581 -2.760374 -9.531749 1.261381 6.184252 34.274299 0.051754 6.076028 2.450217 0.136440 0.172980 -0.041720 18.272765 -10.951000 3.063883 -4.657768 2.703742 -30.822114 3.096744 -4.877549 24.114583 0.078765 -3.010600 3.160445 0.220770 0.349650 0.124510 -4.089001 -2.264668 -7.517910 10.027181 -6.642950 18.789718 -0.832294 -6.793032 15.574282 -1.416228 -2.248019 -13.413831 -6.721970 2.391899 34.202000 -0.645500 -0.221960 -6.948530 25.700822 -40.522467 -6.555669 22.318329 -28.722837 -3.955283 10.216601 3.591405 -0.900667 -4.233302 2.710892 0.066860 0.214460 -0.087470 0.114380 -23.140222 39.720656 0.634793 -22.440964 37.520980 -14.107749 -43.849808 28.440137 -12.325721 2.521990 -1.698280 -0.134530 0.279690 0.116260 0.043910 
-1.366690 18.219700 -3.245960 -1.208341 12.736454 2.601108 -14.976404 13.957900 2.615950 3.088195 -2.244361 -8.761973 0.713771 6.193249 31.768420 0.026830 5.754065 2.575928 0.097650 0.122350 -0.074390 18.308448 -11.010240 3.140836 -4.712076 2.849129 -31.146262 3.548354 -4.853367 23.225432 0.105210 -2.917334 3.204140 0.176690 0.353760 0.120970 -4.236902 -2.037359 -7.492546 11.599339 -6.689863 18.106740 -0.912533 -6.730083 15.322360 -1.466565 -2.131706 -14.014829 -6.539748 1.579447 34.389109 -0.387660 -1.104290 -6.059420 27.442573 -40.364911 -6.919656 23.932544 -28.270903 -3.188861 6.667586 3.053987 -0.654007 -4.107089 2.657271 0.061460 0.207150 -0.097670 0.109960 -24.941674 39.153209 0.498310 -23.702976 36.490620 -14.200594 -42.202762 26.147854 -10.994529 2.597358 -1.723901 -0.128760 0.262620 0.128430 0.055070 
-1.378630 18.124280 -3.262870 -2.254539 13.276096 2.852910 -14.935032 13.909920 2.433376 4.420520 -1.542633 -7.222790 0.380820 6.095644 28.432495 -0.041856 5.409510 2.723852 0.071080 0.085360 -0.096690 18.365971 -10.932294 3.349894 -5.310967 3.554296 -33.069739 5.730057 -5.863347 25.634083 0.061101 -3.349452 3.044182 0.162550 0.373950 0.111950 -4.385989 -1.873666 -7.466602 13.901780 -7.193065 17.635994 -1.299009 -7.095704 15.283371 -1.280950 -1.905194 -14.338968 -6.080607 0.965116 33.713278 -0.362720 -1.735440 -5.527180 28.191255 -39.479976 -6.601418 25.478182 -27.288058 -3.405531 6.186444 1.595866 -0.531412 -4.086167 2.667585 0.055790 0.216440 -0.120650 0.109740 -26.223974 37.710377 0.605429 -26.268031 34.542882 -14.343402 -40.023515 25.163173 -9.749520 2.609912 -1.746707 -0.145590 0.269090 0.141470 0.056300 
-1.424790 18.026520 -3.265320 -1.843127 14.579872 3.499298 -14.963521 13.841334 2.343682 4.867620 -1.165898 -6.155698 -0.095771 6.027317 25.824928 -0.073550 5.176864 2.824576 0.066350 0.077220 -0.111160 18.368168 -10.750909 3.537309 -7.806160 3.648545 -35.309684 8.882753 -7.413567 27.982560 -0.015987 -4.023648 2.782351 0.163600 0.391300 0.124970 -4.368887 -1.920156 -7.522025 13.731663 -7.487132 17.242835 -1.356642 -7.441790 15.095550 -1.184525 -1.237938 -14.381693 -4.746850 0.315002 32.381317 -0.335920 -2.220730 -5.136210 27.430352 -39.168548 -5.835774 27.633561 -26.880512 -4.496782 7.317244 1.652795 -0.661254 -4.201910 2.642677 0.031560 0.236220 -0.140440 0.114980 -25.731425 36.822560 1.134685 -27.889068 33.481709 -14.670800 -39.581563 24.560004 -9.357797 2.609620 -1.778237 -0.141380 0.254770 0.144840 0.063790 
-1.465230 17.984370 -3.292480 -1.603813 14.866882 3.244883 -15.005777 13.868500 2.319528 5.030320 -0.858448 -5.122237 -0.158719 5.944278 24.281328 -0.057042 5.022209 2.877061 0.069430 0.069660 -0.090670 18.333231 -10.572168 3.717275 -9.561377 3.803852 -36.550915 11.275528 -8.696623 29.925219 -0.124649 -4.563124 2.575506 0.133630 0.338680 0.126480 -4.254956 -2.142450 -7.661112 13.599680 -7.675686 18.631095 -1.878973 -7.369483 14.708274 -0.451434 -1.175351 -14.762706 -4.762771 -0.128689 32.873272 -0.481060 -2.478030 -5.758560 26.265536 -39.974008 -5.158255 28.435191 -26.175640 -5.893085 9.552124 1.754765 -0.818989 -4.246755 2.644351 0.065850 0.192800 -0.102850 0.103940 -26.047653 37.865827 1.071823 -29.806270 32.240377 -15.444635 -37.493637 22.507887 -8.132281 2.691669 -1.763582 -0.121210 0.228240 0.132030 0.054980 
-1.500060 17.985860 -3.321210 -1.328842 15.108304 2.317058 -15.046329 13.970391 2.349686 4.807952 -0.613420 -3.989371 0.378212 5.733189 23.484274 -0.031061 4.918469 2.905294 0.074090 0.068850 -0.066010 18.274654 -10.519667 3.758588 -10.284846 3.669966 -36.421991 12.337158 -9.328362 30.848417 -0.195624 -4.803269 2.485114 0.106870 0.281290 0.117040 -4.124932 -2.358051 -7.762386 12.821897 -7.779276 20.567296 -2.065373 -7.379030 14.809681 -0.034216 -0.547553 -15.261048 -3.899750 -0.378929 34.668007 -0.023790 -2.592400 -6.487800 26.215363 -41.199591 -5.195727 28.595533 -24.948627 -6.432471 10.172453 0.875093 -0.815568 -4.208892 2.651067 0.111260 0.140410 -0.057930 0.088530 -26.856258 38.687294 0.611343 -29.609760 31.615135 -15.696866 -36.265224 21.264578 -7.528430 2.769579 -1.731803 -0.105760 0.213160 0.119880 0.042990 
-1.514090 17.991950 -3.341380 -1.558195 14.402805 1.601587 -15.107041 14.130209 2.391011 4.728784 -0.408151 -3.094011 1.103581 5.473982 22.679240 -0.047747 4.853723 2.928676 0.106080 0.115990 -0.032170 18.203763 -10.479425 3.690156 -9.113810 3.716037 -36.124945 11.231512 -8.988101 31.275151 -0.198838 -4.688402 2.527789 0.137260 0.267230 0.113550 -3.921749 -2.704842 -7.769809 11.617588 -7.790856 21.610458 -0.320455 -8.002980 15.525261 -0.191927 -0.368277 -15.128339 -3.638965 0.219809 35.486817 -0.447990 -1.767840 -7.311560 26.661082 -41.385035 -6.026780 26.622501 -23.590069 -5.718507 10.608460 0.488718 -0.809644 -4.201526 2.685982 0.120160 0.136390 -0.037490 0.089020 -26.748811 38.838975 0.463888 -28.386691 32.498022 -15.999532 -38.590607 23.474469 -8.850477 2.732973 -1.728152 -0.104710 0.232030 0.105650 0.035230 
-1.505020 18.005270 -3.366730 -1.418932 14.932054 1.252422 -15.059641 14.156806 2.400647 3.795169 -0.507564 -3.297195 2.772030 4.903122 23.459387 -0.068264 4.785148 2.944500 0.102140 0.097020 -0.026300 18.240689 -10.605714 3.600017 -8.666755 3.286253 -35.875015 9.964679 -8.606853 31.064653 -0.175870 -4.503442 2.587397 0.122820 0.252890 0.104090 -4.073222 -2.603565 -7.697366 12.731612 -8.622705 22.062268 -1.176697 -8.672295 15.248117 -0.200993 -0.816327 -14.992555 -4.626595 0.604960 36.815705 0.217160 -1.979110 -7.672090 25.910288 -41.753280 -5.666331 26.408523 -23.583060 -5.696501 10.143904 -0.150650 -0.770813 -4.141177 2.682780 0.155420 0.108610 -0.026000 0.078510 -26.041200 38.911265 0.338507 -28.750457 33.978947 -16.319211 -38.128587 23.664385 -8.755769 2.711488 -1.671447 -0.113320 0.238670 0.113810 0.025700 
-1.493360 18.008230 -3.379380 -1.479617 15.217927 1.078840 -15.029796 14.173958 2.416256 3.472875 -0.633779 -3.555565 3.258923 4.728054 24.094149 -0.070058 4.790015 2.934627 0.106590 0.097440 -0.021310 18.264254 -10.695752 3.514667 -7.888093 3.094693 -35.622025 8.423649 -8.135532 31.089178 -0.160435 -4.325696 2.646748 0.118330 0.238720 0.101180 -4.166791 -2.543609 -7.632098 13.690556 -9.277690 22.194105 -2.073154 -9.074357 15.143086 0.015162 -1.173919 -14.897648 -5.433372 0.912395 37.694872 0.520820 -2.023670 -7.922910 25.743644 -41.603785 -5.485777 26.302801 -23.954268 -5.670224 9.856954 -0.086361 -0.753983 -4.093778 2.676790 0.175820 0.089400 -0.012000 0.076990 -26.373644 38.661463 0.157591 -30.063075 34.362219 -16.502775 -36.811739 23.070297 -8.157810 2.705979 -1.647429 -0.112570 0.239170 0.112350 0.022700 
-1.478700 18.007280 -3.391890 -1.676847 15.558563 1.172351 -15.017505 14.182431 2.410011 3.385343 -0.885145 -4.252814 3.570685 4.597156 24.867875 -0.089054 4.824793 2.915045 0.109430 0.104570 -0.023020 18.281279 -10.723649 3.451923 -7.199637 2.944276 -35.488825 7.579514 -7.878456 30.918167 -0.140457 -4.222438 2.682907 0.131640 0.250690 0.103080 -4.220556 -2.567180 -7.569952 14.211418 -9.856706 21.696943 -2.037304 -9.729805 15.347818 -0.052778 -1.330250 -14.660764 -5.822170 1.497900 38.334193 0.337760 -1.558920 -7.472980 26.269837 -40.936183 -5.870156 25.162980 -24.362817 -4.909280 9.199520 0.044327 -0.695806 -4.059237 2.698107 0.167470 0.104460 -0.020420 0.078020 -26.754076 37.750518 -0.021680 -30.041315 34.903685 -16.023514 -36.633658 23.925182 -8.271612 2.648704 -1.646276 -0.118300 0.244490 0.116790 0.021570 
